# xmcd
#
# Track frame offsets: 
#        150
#        15395
#        31630
#        46220
#        60640
#        78120
#        92065
#        108182
#        120835
#        134150
#
# Disc length: 2001 seconds
#
# Revision: 2
# Processed by: cddbd v1.4PL0 Copyright (c) Steve Scherf et al.
# Submitted via: ExactAudioCopy v0.90b2
#
DISCID=6b07cf0a
DTITLE=Lacy J. Dalton - Lacy J. Dalton
DYEAR=1900
DGENRE=Country
TTITLE0=Don't Try To Tell Me (Nothin's Goin' On)
TTITLE1=Black Coffee
TTITLE2=Where Did We Go Right
TTITLE3=Turn To A Little 3rd Rate Romance
TTITLE4=Long Way Down
TTITLE5=Ain't No Question
TTITLE6=Lonesome (As The Night Is Long)
TTITLE7=Walk That Line
TTITLE8=Shaky Ground (Duet With Glen Campbell)
TTITLE9=That Road
EXTD=
EXTT0=
EXTT1=
EXTT2=
EXTT3=
EXTT4=
EXTT5=
EXTT6=
EXTT7=
EXTT8=
EXTT9=
PLAYORDER=
